<mxfile host="app.diagrams.net" modified="2021-10-08T12:54:37.629Z" agent="5.0 (Macintosh; Intel Mac OS X 10_15_7) AppleWebKit/537.36 (KHTML, like Gecko) Chrome/94.0.4606.71 Safari/537.36" etag="MqjQnD5gB4qy8Fx6IBXV" version="15.4.3" type="github">
  <diagram id="ckdOkKxMEzGKWoXddqem" name="Page-1">
    <mxGraphModel dx="1826" dy="794" grid="1" gridSize="10" guides="1" tooltips="1" connect="1" arrows="1" fold="1" page="0" pageScale="1" pageWidth="827" pageHeight="1169" math="0" shadow="0">
      <root>
        <mxCell id="0" />
        <mxCell id="1" parent="0" />
        <mxCell id="-XRt4lCiMcRDXyAqXYDS-6" style="edgeStyle=orthogonalEdgeStyle;rounded=0;orthogonalLoop=1;jettySize=auto;html=1;entryX=0;entryY=0.5;entryDx=0;entryDy=0;" parent="1" source="-XRt4lCiMcRDXyAqXYDS-1" target="-XRt4lCiMcRDXyAqXYDS-5" edge="1">
          <mxGeometry relative="1" as="geometry" />
        </mxCell>
        <mxCell id="-XRt4lCiMcRDXyAqXYDS-7" style="edgeStyle=orthogonalEdgeStyle;rounded=0;orthogonalLoop=1;jettySize=auto;html=1;entryX=0;entryY=0.5;entryDx=0;entryDy=0;" parent="1" source="-XRt4lCiMcRDXyAqXYDS-1" target="-XRt4lCiMcRDXyAqXYDS-4" edge="1">
          <mxGeometry relative="1" as="geometry" />
        </mxCell>
        <mxCell id="-XRt4lCiMcRDXyAqXYDS-8" style="edgeStyle=orthogonalEdgeStyle;rounded=0;orthogonalLoop=1;jettySize=auto;html=1;entryX=0;entryY=0.5;entryDx=0;entryDy=0;" parent="1" source="-XRt4lCiMcRDXyAqXYDS-1" target="-XRt4lCiMcRDXyAqXYDS-3" edge="1">
          <mxGeometry relative="1" as="geometry" />
        </mxCell>
        <mxCell id="-XRt4lCiMcRDXyAqXYDS-1" value="LxoFoundation" style="swimlane;" parent="1" vertex="1">
          <mxGeometry x="80" y="860" width="120" height="80" as="geometry" />
        </mxCell>
        <mxCell id="-XRt4lCiMcRDXyAqXYDS-3" value="XCGLogger ~&gt; 7.0" style="swimlane;" parent="1" vertex="1">
          <mxGeometry x="280" y="880" width="120" height="40" as="geometry" />
        </mxCell>
        <mxCell id="-XRt4lCiMcRDXyAqXYDS-4" value="SwiftLint" style="swimlane;" parent="1" vertex="1">
          <mxGeometry x="280" y="940" width="120" height="40" as="geometry" />
        </mxCell>
        <mxCell id="-XRt4lCiMcRDXyAqXYDS-5" value="DeviceGuru" style="swimlane;" parent="1" vertex="1">
          <mxGeometry x="280" y="1000" width="120" height="40" as="geometry" />
        </mxCell>
        <mxCell id="-XRt4lCiMcRDXyAqXYDS-10" style="edgeStyle=orthogonalEdgeStyle;rounded=0;orthogonalLoop=1;jettySize=auto;html=1;entryX=0.5;entryY=0;entryDx=0;entryDy=0;" parent="1" source="-XRt4lCiMcRDXyAqXYDS-9" target="-XRt4lCiMcRDXyAqXYDS-1" edge="1">
          <mxGeometry relative="1" as="geometry">
            <Array as="points">
              <mxPoint x="300" y="790" />
              <mxPoint x="140" y="790" />
            </Array>
          </mxGeometry>
        </mxCell>
        <mxCell id="-XRt4lCiMcRDXyAqXYDS-15" style="edgeStyle=orthogonalEdgeStyle;rounded=0;orthogonalLoop=1;jettySize=auto;html=1;entryX=0;entryY=0.5;entryDx=0;entryDy=0;" parent="1" source="-XRt4lCiMcRDXyAqXYDS-9" target="-XRt4lCiMcRDXyAqXYDS-13" edge="1">
          <mxGeometry relative="1" as="geometry" />
        </mxCell>
        <mxCell id="-XRt4lCiMcRDXyAqXYDS-16" style="edgeStyle=orthogonalEdgeStyle;rounded=0;orthogonalLoop=1;jettySize=auto;html=1;entryX=0;entryY=0.5;entryDx=0;entryDy=0;" parent="1" source="-XRt4lCiMcRDXyAqXYDS-9" target="-XRt4lCiMcRDXyAqXYDS-12" edge="1">
          <mxGeometry relative="1" as="geometry" />
        </mxCell>
        <mxCell id="-XRt4lCiMcRDXyAqXYDS-17" style="edgeStyle=orthogonalEdgeStyle;rounded=0;orthogonalLoop=1;jettySize=auto;html=1;entryX=0;entryY=0.5;entryDx=0;entryDy=0;" parent="1" source="-XRt4lCiMcRDXyAqXYDS-9" target="-XRt4lCiMcRDXyAqXYDS-11" edge="1">
          <mxGeometry relative="1" as="geometry" />
        </mxCell>
        <mxCell id="-XRt4lCiMcRDXyAqXYDS-18" style="edgeStyle=orthogonalEdgeStyle;rounded=0;orthogonalLoop=1;jettySize=auto;html=1;entryX=0;entryY=0.5;entryDx=0;entryDy=0;" parent="1" source="-XRt4lCiMcRDXyAqXYDS-9" target="-XRt4lCiMcRDXyAqXYDS-14" edge="1">
          <mxGeometry relative="1" as="geometry" />
        </mxCell>
        <mxCell id="-XRt4lCiMcRDXyAqXYDS-9" value="LxoUIKit" style="swimlane;" parent="1" vertex="1">
          <mxGeometry x="240" y="680" width="120" height="80" as="geometry" />
        </mxCell>
        <mxCell id="-XRt4lCiMcRDXyAqXYDS-11" value="SwiftScanner ~&gt; 1.1" style="swimlane;" parent="1" vertex="1">
          <mxGeometry x="440" y="640" width="120" height="40" as="geometry" />
        </mxCell>
        <mxCell id="-XRt4lCiMcRDXyAqXYDS-12" value="SwiftyMarkdown" style="swimlane;" parent="1" vertex="1">
          <mxGeometry x="440" y="580" width="120" height="40" as="geometry" />
        </mxCell>
        <mxCell id="-XRt4lCiMcRDXyAqXYDS-13" value="R" style="swimlane;" parent="1" vertex="1">
          <mxGeometry x="440" y="520" width="120" height="40" as="geometry" />
        </mxCell>
        <mxCell id="-XRt4lCiMcRDXyAqXYDS-14" value="SwiftObserver ~&gt; 6.0" style="swimlane;" parent="1" vertex="1">
          <mxGeometry x="440" y="700" width="120" height="40" as="geometry" />
        </mxCell>
        <mxCell id="-XRt4lCiMcRDXyAqXYDS-20" style="edgeStyle=orthogonalEdgeStyle;rounded=0;orthogonalLoop=1;jettySize=auto;html=1;entryX=0.5;entryY=0;entryDx=0;entryDy=0;" parent="1" source="-XRt4lCiMcRDXyAqXYDS-19" target="-XRt4lCiMcRDXyAqXYDS-1" edge="1">
          <mxGeometry relative="1" as="geometry">
            <Array as="points">
              <mxPoint x="140" y="800" />
              <mxPoint x="140" y="800" />
            </Array>
          </mxGeometry>
        </mxCell>
        <mxCell id="47vxZGQ1EH_PGYCMF2Wq-5" style="edgeStyle=orthogonalEdgeStyle;rounded=0;orthogonalLoop=1;jettySize=auto;html=1;entryX=0;entryY=0.5;entryDx=0;entryDy=0;" edge="1" parent="1" source="-XRt4lCiMcRDXyAqXYDS-19" target="-XRt4lCiMcRDXyAqXYDS-23">
          <mxGeometry relative="1" as="geometry" />
        </mxCell>
        <mxCell id="47vxZGQ1EH_PGYCMF2Wq-6" style="edgeStyle=orthogonalEdgeStyle;rounded=0;orthogonalLoop=1;jettySize=auto;html=1;entryX=0;entryY=0.5;entryDx=0;entryDy=0;" edge="1" parent="1" source="-XRt4lCiMcRDXyAqXYDS-19" target="-XRt4lCiMcRDXyAqXYDS-22">
          <mxGeometry relative="1" as="geometry" />
        </mxCell>
        <mxCell id="47vxZGQ1EH_PGYCMF2Wq-7" style="edgeStyle=orthogonalEdgeStyle;rounded=0;orthogonalLoop=1;jettySize=auto;html=1;entryX=0;entryY=0.5;entryDx=0;entryDy=0;" edge="1" parent="1" source="-XRt4lCiMcRDXyAqXYDS-19" target="-XRt4lCiMcRDXyAqXYDS-21">
          <mxGeometry relative="1" as="geometry" />
        </mxCell>
        <mxCell id="47vxZGQ1EH_PGYCMF2Wq-8" style="edgeStyle=orthogonalEdgeStyle;rounded=0;orthogonalLoop=1;jettySize=auto;html=1;entryX=0;entryY=0.5;entryDx=0;entryDy=0;" edge="1" parent="1" source="-XRt4lCiMcRDXyAqXYDS-19" target="-XRt4lCiMcRDXyAqXYDS-24">
          <mxGeometry relative="1" as="geometry" />
        </mxCell>
        <mxCell id="-XRt4lCiMcRDXyAqXYDS-19" value="LxoBackend" style="swimlane;" parent="1" vertex="1">
          <mxGeometry x="80" y="580" width="120" height="80" as="geometry" />
        </mxCell>
        <mxCell id="-XRt4lCiMcRDXyAqXYDS-29" value="*Package" style="text;html=1;align=center;verticalAlign=middle;resizable=0;points=[];autosize=1;strokeColor=none;fillColor=none;" parent="-XRt4lCiMcRDXyAqXYDS-19" vertex="1">
          <mxGeometry x="50" y="20" width="70" height="20" as="geometry" />
        </mxCell>
        <mxCell id="-XRt4lCiMcRDXyAqXYDS-21" value="SwiftScanner ~&gt; 1.1" style="swimlane;" parent="1" vertex="1">
          <mxGeometry x="240" y="480" width="120" height="40" as="geometry" />
        </mxCell>
        <mxCell id="-XRt4lCiMcRDXyAqXYDS-22" value="JWTDecode ~&gt; 2.4" style="swimlane;" parent="1" vertex="1">
          <mxGeometry x="240" y="420" width="120" height="40" as="geometry" />
        </mxCell>
        <mxCell id="-XRt4lCiMcRDXyAqXYDS-23" value="KeychainAccess" style="swimlane;" parent="1" vertex="1">
          <mxGeometry x="240" y="360" width="120" height="40" as="geometry" />
        </mxCell>
        <mxCell id="-XRt4lCiMcRDXyAqXYDS-24" value="TrustKit ~&gt; 1.7.0" style="swimlane;" parent="1" vertex="1">
          <mxGeometry x="240" y="540" width="120" height="40" as="geometry" />
        </mxCell>
        <mxCell id="47vxZGQ1EH_PGYCMF2Wq-4" style="edgeStyle=orthogonalEdgeStyle;rounded=0;orthogonalLoop=1;jettySize=auto;html=1;entryX=0;entryY=0.5;entryDx=0;entryDy=0;" edge="1" parent="1" source="47vxZGQ1EH_PGYCMF2Wq-1" target="-XRt4lCiMcRDXyAqXYDS-19">
          <mxGeometry relative="1" as="geometry" />
        </mxCell>
        <mxCell id="47vxZGQ1EH_PGYCMF2Wq-9" style="edgeStyle=orthogonalEdgeStyle;rounded=0;orthogonalLoop=1;jettySize=auto;html=1;entryX=0.5;entryY=0;entryDx=0;entryDy=0;" edge="1" parent="1" source="47vxZGQ1EH_PGYCMF2Wq-1" target="-XRt4lCiMcRDXyAqXYDS-1">
          <mxGeometry relative="1" as="geometry">
            <Array as="points">
              <mxPoint x="-30" y="790" />
              <mxPoint x="140" y="790" />
            </Array>
          </mxGeometry>
        </mxCell>
        <mxCell id="47vxZGQ1EH_PGYCMF2Wq-10" style="edgeStyle=orthogonalEdgeStyle;rounded=0;orthogonalLoop=1;jettySize=auto;html=1;entryX=0;entryY=0.5;entryDx=0;entryDy=0;jumpStyle=arc;" edge="1" parent="1" source="47vxZGQ1EH_PGYCMF2Wq-1" target="-XRt4lCiMcRDXyAqXYDS-9">
          <mxGeometry relative="1" as="geometry">
            <Array as="points">
              <mxPoint x="20" y="500" />
              <mxPoint x="20" y="720" />
            </Array>
          </mxGeometry>
        </mxCell>
        <mxCell id="47vxZGQ1EH_PGYCMF2Wq-12" style="edgeStyle=orthogonalEdgeStyle;rounded=0;jumpStyle=arc;orthogonalLoop=1;jettySize=auto;html=1;entryX=0;entryY=0.5;entryDx=0;entryDy=0;" edge="1" parent="1" source="47vxZGQ1EH_PGYCMF2Wq-1" target="47vxZGQ1EH_PGYCMF2Wq-11">
          <mxGeometry relative="1" as="geometry">
            <Array as="points">
              <mxPoint x="30" y="460" />
              <mxPoint x="30" y="380" />
            </Array>
          </mxGeometry>
        </mxCell>
        <mxCell id="47vxZGQ1EH_PGYCMF2Wq-1" value="LxoToolkit" style="swimlane;" vertex="1" parent="1">
          <mxGeometry x="-120" y="440" width="120" height="80" as="geometry" />
        </mxCell>
        <mxCell id="47vxZGQ1EH_PGYCMF2Wq-11" value="DeviceGuru" style="swimlane;" vertex="1" parent="1">
          <mxGeometry x="60" y="360" width="120" height="40" as="geometry" />
        </mxCell>
        <mxCell id="47vxZGQ1EH_PGYCMF2Wq-14" style="edgeStyle=orthogonalEdgeStyle;rounded=0;jumpStyle=arc;orthogonalLoop=1;jettySize=auto;html=1;entryX=0.5;entryY=0;entryDx=0;entryDy=0;" edge="1" parent="1" source="47vxZGQ1EH_PGYCMF2Wq-13" target="47vxZGQ1EH_PGYCMF2Wq-1">
          <mxGeometry relative="1" as="geometry" />
        </mxCell>
        <mxCell id="47vxZGQ1EH_PGYCMF2Wq-13" value="LxoUploadKit" style="swimlane;" vertex="1" parent="1">
          <mxGeometry x="-120" y="260" width="120" height="80" as="geometry" />
        </mxCell>
        <mxCell id="47vxZGQ1EH_PGYCMF2Wq-16" style="edgeStyle=orthogonalEdgeStyle;rounded=0;jumpStyle=arc;orthogonalLoop=1;jettySize=auto;html=1;entryX=0.5;entryY=0;entryDx=0;entryDy=0;" edge="1" parent="1" source="47vxZGQ1EH_PGYCMF2Wq-15" target="47vxZGQ1EH_PGYCMF2Wq-13">
          <mxGeometry relative="1" as="geometry" />
        </mxCell>
        <mxCell id="47vxZGQ1EH_PGYCMF2Wq-15" value="LxoScankit" style="swimlane;" vertex="1" parent="1">
          <mxGeometry x="-120" y="120" width="120" height="80" as="geometry" />
        </mxCell>
      </root>
    </mxGraphModel>
  </diagram>
</mxfile>
